<?xml version="1.0" standalone="no"?>
<!DOCTYPE svg PUBLIC "-//W3C//DTD SVG 20010904//EN"
 "http://www.w3.org/TR/2001/REC-SVG-20010904/DTD/svg10.dtd">
<svg version="1.0" xmlns="http://www.w3.org/2000/svg"
 width="700.000000pt" height="700.000000pt" viewBox="0 0 700.000000 700.000000"
 preserveAspectRatio="xMidYMid meet">
<metadata>
Created by potrace 1.14, written by Peter Selinger 2001-2017
</metadata>
<g transform="translate(0.000000,700.000000) scale(0.100000,-0.100000)"
fill="#000000" stroke="none">
<path d="M2609 6996 c-2 -2 -42 -7 -89 -10 -47 -4 -94 -9 -105 -11 -11 -3 -36
-7 -55 -9 -94 -13 -285 -58 -380 -89 -36 -12 -67 -22 -70 -22 -3 -1 -14 -5
-25 -9 -328 -120 -547 -240 -820 -448 -60 -46 -202 -174 -268 -243 -390 -400
-644 -891 -752 -1450 -42 -222 -43 -232 -44 -2513 l-1 -2193 2232 4 c1228 2
2249 7 2268 10 19 4 69 12 110 18 179 27 247 42 420 96 103 32 281 98 328 122
9 5 55 28 102 51 256 129 499 305 719 520 76 74 238 263 286 334 12 17 37 54
56 81 121 171 253 438 331 665 27 81 81 280 92 345 25 137 28 159 44 275 3 25
7 455 8 955 2 984 1 1007 -52 1280 -165 829 -711 1549 -1468 1935 -240 122
-463 202 -696 249 -30 6 -66 14 -80 17 -14 3 -88 13 -165 23 -126 16 -231 18
-1031 19 -490 1 -893 0 -895 -2z"/>
</g>
</svg>
